<svg width="867" height="663" viewBox="0 0 867 663" fill="none" xmlns="http://www.w3.org/2000/svg">
<g id="undraw_connected_world_wuay 1">
<path id="Vector" d="M235.075 189.056C234.791 186.816 234.218 184.622 233.369 182.529C233.261 182.133 233.071 181.764 232.813 181.446C232.554 181.127 232.232 180.866 231.866 180.679C231.378 180.552 230.866 180.546 230.375 180.662L222.719 181.833C222.078 181.862 221.465 182.101 220.972 182.511C219.975 183.56 220.957 185.247 220.927 186.693C220.892 188.319 219.447 189.639 217.879 190.076C216.279 190.399 214.629 190.379 213.038 190.016L202.332 188.353C205.485 187.347 208.291 185.475 210.431 182.951C211.84 181.283 212.589 178.169 210.553 177.379C209.948 177.213 209.317 177.163 208.694 177.23C203.844 177.268 200.027 173.22 195.486 171.515C192.58 170.495 189.426 170.419 186.474 171.298C183.522 172.178 180.924 173.968 179.051 176.412L184.754 176.687C185.291 176.658 185.823 176.799 186.273 177.092C187.523 178.118 185.969 180.09 186.145 181.697C186.374 183.785 189.148 184.231 191.239 184.442C193.329 184.653 195.982 186.351 194.976 188.195C184.467 191.813 173.773 181.123 162.736 182.439C159.943 182.772 157.305 183.869 154.578 184.558C137.918 188.772 120.695 177.53 103.676 179.911C99.8926 180.556 96.174 181.536 92.5645 182.84C90.2482 183.6 87.8322 184.422 86.1492 186.185C84.4662 187.948 83.8256 190.963 85.42 192.806C81.0255 193.168 76.6016 192.748 72.3539 191.565C73.5026 192.203 74.4581 193.139 75.1203 194.273C75.7825 195.408 76.1269 196.7 76.1174 198.013C69.2558 199.132 62.5759 201.167 56.2574 204.066C57.4367 206.026 58.8141 207.86 60.3679 209.539L51.6814 215.117C54.6161 215.856 56.1334 219.856 54.4268 222.354C57.4698 221.001 59.3557 217.501 62.6096 216.791C64.7414 216.326 66.9106 217.198 68.9329 218.017C70.9552 218.835 73.178 219.629 75.2715 219.015C77.365 218.4 78.9092 215.687 77.5789 213.958C86.5272 211.349 95.7751 209.905 105.093 209.662C105.812 209.571 106.541 209.71 107.177 210.057C108.39 210.898 108.071 212.715 108.006 214.189C107.94 215.663 109.09 217.601 110.408 216.936C108.857 218.28 110.183 220.811 111.671 222.224C113.159 223.638 114.952 225.588 114.041 227.427C113.803 227.907 113.4 228.291 113.171 228.775C112.496 230.204 113.568 231.871 114.833 232.82C116.097 233.769 117.646 234.433 118.525 235.747C119.403 237.061 119.004 239.362 117.433 239.546L112.969 233.88C111.444 235.461 110.398 237.441 109.953 239.592C114.687 243.46 115.399 251.334 111.436 255.988C109.411 258.367 106.53 259.812 104.016 261.667C101.502 263.522 99.1763 266.164 99.1826 269.287C99.1935 274.683 98.7524 279.696 100.775 284.699C104.506 293.924 108.813 302.905 113.671 311.589C114.946 313.87 116.595 316.369 119.179 316.762C115.913 308.815 112.973 300.744 110.359 292.549C112.062 292.556 114.029 292.691 115.027 294.07C115.854 295.212 115.676 296.764 115.933 298.15C116.26 299.492 116.804 300.772 117.546 301.938L133.142 329.707C134.435 332.009 135.918 334.48 138.389 335.412C139.969 336.008 141.796 335.896 143.251 336.754C144.39 337.426 145.158 338.62 146.32 339.254C149.605 341.045 154.174 337.61 157.244 339.748C158.122 340.36 158.681 341.332 159.49 342.032C162.325 344.486 166.977 342.844 170.251 344.675C172.36 345.855 173.454 348.215 174.579 350.354C177.398 355.711 181.959 360.96 188 361.387C189.897 361.521 191.835 361.161 193.69 361.583C195.545 362.005 197.371 363.623 197.073 365.501C196.563 368.72 198.154 372.245 197.727 375.477C196.948 381.363 188.595 383.95 187.877 389.844C187.72 391.135 187.966 392.467 187.659 393.73C187.282 395.278 186.119 396.539 185.705 398.077C184.922 400.994 187.012 403.896 189.309 405.858C191.605 407.82 194.344 409.511 195.599 412.258C196.926 415.161 196.275 418.546 196.706 421.708C197.648 428.611 203.614 433.729 209.753 437.029C211.624 438.034 213.632 439.008 214.843 440.752C216.423 443.028 216.266 446.03 216.794 448.75C218.086 455.411 223.697 460.9 223.856 467.684C223.969 472.506 221.287 476.88 219.686 481.43C218.184 485.789 217.64 490.42 218.092 495.008C218.544 499.596 219.981 504.033 222.305 508.015C223.503 510.038 224.936 511.945 225.784 514.137C227.296 518.05 226.806 522.497 228.2 526.453C230.044 531.683 235.111 536.004 234.626 541.528C236.927 546.302 242.006 548.649 247.114 550.07L256.268 552.617C258.021 553.104 259.853 553.596 261.637 553.243C263.422 552.89 265.126 551.408 265.08 549.59C260.59 548.578 255.957 547.502 252.257 544.768C248.556 542.034 246.021 537.165 247.425 532.784C248.076 530.753 249.461 528.408 248.145 526.729C247.391 525.769 246.012 525.518 245.162 524.641C243.835 523.273 244.291 520.976 245.244 519.327C246.198 517.678 247.576 516.204 247.961 514.339C248.155 513.295 248.025 512.217 247.589 511.249C247.153 510.281 246.431 509.47 245.52 508.924C247.218 508.283 248.761 507.293 250.051 506.018C251.243 504.658 251.793 502.561 250.856 501.015C253.639 501.368 256.926 501.541 258.753 499.412C260.212 497.713 260.112 495.172 259.535 493.008C258.959 490.844 257.984 488.742 257.954 486.503C264.375 486.807 270.81 486.589 277.196 485.85C276.272 482.742 274.174 480.115 271.346 478.527C274.238 478.038 276.873 474.577 277.786 471.791C278.7 469.005 278.467 465.971 277.902 463.094C277.685 462.353 277.656 461.57 277.816 460.815C278.141 459.778 279.161 459.145 280.104 458.603L294.459 450.363C295.316 449.934 296.093 449.361 296.755 448.669C298.259 446.903 298.036 444.238 297.266 442.05C296.496 439.863 295.262 437.806 294.966 435.506C294.079 428.627 301.446 423.692 303.932 417.216C304.908 414.675 305.106 411.913 305.295 409.198C305.498 406.282 305.513 402.894 303.273 401.015C301.125 399.214 297.77 399.615 295.523 397.94C293.463 396.404 292.752 393.42 290.501 392.179C288.457 391.052 285.895 391.769 283.621 391.239C279.619 390.306 277.1 385.695 273.012 385.268C270.706 385.027 268.096 386.154 266.206 384.811C264.54 383.628 264.473 381.251 264.156 379.233C263.6 376.098 262.097 373.207 259.848 370.952C257.598 368.697 254.712 367.185 251.577 366.619C249.199 366.238 246.61 366.383 244.587 365.076C242.539 363.754 241.599 361.278 239.99 359.446C237.397 356.494 233.313 355.445 229.487 354.546L213.924 350.889C211.161 350.24 207.6 349.896 206.117 352.315C205.679 353.236 205.368 354.212 205.194 355.218C204.638 357.036 203.52 358.631 202.001 359.775C200.481 360.918 198.638 361.55 196.736 361.581C195.432 359.357 193.318 357.723 190.837 357.019C189.259 356.58 187.57 356.531 186.065 355.884C185.245 355.484 184.516 354.921 183.922 354.23C183.327 353.538 182.88 352.733 182.608 351.863C182.335 350.993 182.244 350.076 182.338 349.169C182.432 348.263 182.711 347.385 183.156 346.589C184.054 344.992 184.4 343.145 184.142 341.332C183.885 339.518 183.037 337.84 181.73 336.557C179.084 334.182 175.255 333.608 171.707 333.845C170.777 331.818 172.331 329.531 174.006 328.058C175.681 326.585 177.714 325.137 178.079 322.937C178.652 319.477 174.235 316.849 170.881 317.88C167.527 318.912 165.387 322.168 163.972 325.378C163.16 327.219 162.469 329.159 161.189 330.712C159.908 332.264 157.846 333.376 155.895 332.878C153.133 332.172 152.067 328.893 151.455 326.11C150.635 322.376 149.811 318.591 149.982 314.772C150.154 310.954 151.442 307.033 154.259 304.448C158.85 300.235 165.893 300.648 172.088 301.32C170.625 299.671 170.986 296.893 172.553 295.342C173.379 294.608 174.373 294.086 175.447 293.822C176.521 293.558 177.643 293.561 178.716 293.828C180.583 294.217 182.265 295.222 183.491 296.682C185.251 298.827 185.752 301.724 187.083 304.16C188.414 306.595 191.406 308.672 193.855 307.365C195.971 306.237 196.307 303.305 195.78 300.967C195.254 298.628 194.135 296.354 194.326 293.965C194.69 289.406 199.418 286.662 203.59 284.785C207.762 282.907 212.54 280.382 213.201 275.857C213.224 274.971 213.391 274.094 213.696 273.262C214.159 272.527 214.802 271.923 215.564 271.506C227.741 263.463 240.12 255.321 254.038 250.926C254.762 250.698 254.847 250.952 255.585 250.773C256.617 250.176 255.933 248.526 254.943 247.861C253.953 247.196 252.629 246.686 252.378 245.52C252.193 244.664 252.698 243.822 252.83 242.956C253.152 240.826 250.603 238.86 248.624 239.712C247.506 238.232 249.718 236.512 251.507 236.02C256.878 234.543 262.392 233.642 267.954 233.335C268.596 233.233 269.253 233.345 269.825 233.653C270.76 234.3 270.64 235.783 269.978 236.707C269.316 237.63 268.286 238.21 267.461 238.991C266.56 239.868 265.917 240.977 265.603 242.195C265.288 243.413 265.315 244.694 265.679 245.898C268.583 247.374 271.74 248.894 274.956 248.374C278.172 247.854 281.026 244.242 279.515 241.357C278.107 238.671 273.879 238.065 273.151 235.121C272.3 231.674 277.182 228.609 276.082 225.233C275.6 223.754 274.126 222.884 272.995 221.816C271.658 220.507 270.749 218.825 270.387 216.99C270.025 215.155 270.226 213.254 270.965 211.536C269.122 211.86 267.228 211.737 265.442 211.179C263.657 210.62 262.031 209.642 260.702 208.326C258.247 205.849 256.288 201.943 252.802 202.054C249.603 202.156 246.848 205.886 243.857 204.748C243.121 204.468 242.345 203.898 241.632 204.232C241.399 204.383 241.202 204.586 241.059 204.825C240.915 205.063 240.827 205.331 240.802 205.609C240.042 209.241 241.35 213.38 239.369 216.519C237.214 219.935 232.228 220.408 229.615 223.488C228.197 225.16 227.647 227.413 226.343 229.176C225.04 230.939 222.272 232.06 220.708 230.523C221.477 228.943 221.687 227.149 221.303 225.434C220.92 223.719 219.966 222.185 218.598 221.083C217.145 220.135 215.579 219.374 213.937 218.816C212.101 218.04 210.356 217.067 208.73 215.916C207.915 215.425 207.253 214.717 206.818 213.871C206.474 212.813 206.52 211.666 206.949 210.639C207.742 208.365 209.142 206.351 210.997 204.814C212.851 203.278 215.091 202.277 217.473 201.919C219.557 201.636 221.981 201.736 223.36 200.149C224.089 199.31 224.472 198.041 225.531 197.7C226.208 197.564 226.911 197.65 227.535 197.947L235.311 200.682C236.179 201.074 237.134 201.232 238.081 201.14C238.551 201.077 238.98 200.838 239.281 200.472C239.582 200.107 239.734 199.64 239.705 199.167C239.457 197.877 237.47 197.257 237.651 195.955C237.752 195.534 237.979 195.152 238.301 194.862C241.108 191.877 244.539 189.548 248.351 188.044C252.163 186.539 256.261 185.896 260.35 186.159C261.332 187.77 259.78 189.678 258.488 191.054C257.196 192.429 256.159 194.886 257.721 195.945C258.361 196.272 259.073 196.432 259.791 196.411C261.705 196.67 263.566 197.234 265.302 198.082C267.989 199.251 270.624 200.529 273.208 201.918C272.98 200.215 272.762 198.421 273.407 196.829C274.053 195.237 275.888 193.988 277.492 194.608C279.036 195.206 279.829 197.25 281.475 197.438C283.67 197.688 284.536 194.446 283.619 192.436C282.702 190.427 280.887 188.744 280.735 186.541C280.633 185.054 281.199 183.21 280.011 182.31C279.588 182.04 279.108 181.872 278.609 181.819L248.946 176.363C247.185 176.039 244.639 176.287 244.561 178.076C244.518 179.074 245.41 180.062 245.015 180.98C244.593 181.959 243.208 181.87 242.198 182.216C240.633 182.754 239.847 184.612 239.997 186.26C240.273 187.898 240.907 189.454 241.855 190.818C239.926 190.011 237.004 189.863 235.075 189.056Z" fill="#11998E"/>
<path id="Vector_2" d="M211.407 163.888C209.536 163.269 207.52 163.24 205.633 163.805C203.746 164.37 202.078 165.502 200.855 167.046C200.367 167.689 199.957 168.575 200.365 169.271C200.952 170.269 202.445 169.875 203.547 169.518C205.165 168.94 206.927 168.898 208.572 169.398C209.606 169.753 210.531 170.38 211.569 170.722C212.075 170.933 212.629 171.003 213.171 170.924C213.713 170.845 214.224 170.619 214.648 170.272C215.36 169.546 215.405 168.416 215.406 167.398C215.456 167.058 215.429 166.71 215.327 166.382C215.225 166.053 215.051 165.751 214.817 165.499C214.401 165.258 213.934 165.12 213.454 165.096C212.38 164.897 211.408 164.329 210.707 163.491" fill="#11998E"/>
<path id="Vector_3" d="M222.103 160.911C221.684 160.889 221.267 160.974 220.89 161.159C220.514 161.344 220.192 161.623 219.955 161.968C219.718 162.314 219.573 162.714 219.536 163.132C219.498 163.549 219.569 163.969 219.741 164.351C221.026 164.702 222.37 164.789 223.69 164.609C224.348 164.506 224.962 164.212 225.453 163.761C225.944 163.311 226.291 162.726 226.45 162.079C224.895 162.362 223.291 162.056 221.951 161.22" fill="#11998E"/>
<path id="Vector_4" d="M257.989 155.94C254.49 156.684 251.091 157.838 247.863 159.378C249.384 159.963 250.678 161.021 251.553 162.396C252.428 163.771 252.838 165.391 252.722 167.016C252.585 167.64 252.601 168.288 252.768 168.905C253.14 169.806 254.218 170.144 255.165 170.375C256.867 170.893 258.645 171.12 260.422 171.046C261.312 171 262.175 170.732 262.935 170.268C263.695 169.804 264.327 169.158 264.774 168.388C265.032 167.658 265.334 166.943 265.679 166.25C267.95 162.793 274.696 166.973 277.135 163.632C277.993 162.455 277.915 160.683 279.035 159.75C279.614 159.344 280.285 159.088 280.988 159.005C285.891 158.032 290.844 157.327 295.824 156.893C298.184 156.688 301.26 155.841 301.28 153.474C292.391 151.729 283.175 152.968 275.064 156.999C272.142 158.462 268.277 161.539 265.462 159.6C264.408 158.873 264.46 156.918 263.009 156.101C261.526 155.266 259.563 155.606 257.989 155.94Z" fill="#11998E"/>
<path id="Vector_5" d="M287.056 161.373L291.229 162.175C290.461 162.141 289.694 162.271 288.98 162.556C288.267 162.842 287.622 163.276 287.09 163.83C286.557 164.385 286.149 165.046 285.893 165.77C285.636 166.495 285.537 167.265 285.602 168.031C289.509 169.336 293.769 168.066 297.885 168.24C302.001 168.413 306.79 171.352 306.087 175.409C305.875 176.636 305.166 177.861 305.534 179.051C305.793 179.884 306.528 180.476 306.943 181.243C307.808 182.843 307.117 184.866 306.025 186.32C304.932 187.775 303.464 188.935 302.505 190.48C300.121 194.324 301.476 199.293 302.896 203.586C303.307 205.209 304.065 206.723 305.119 208.023C307.223 210.26 310.653 210.454 313.724 210.499C315.96 210.532 318.521 210.421 319.934 208.69C321.78 206.43 320.49 202.904 321.705 200.251C322.808 197.842 325.62 196.808 328.167 196.075C332.834 194.732 337.59 193.591 342.003 191.562C347.481 189.043 352.601 185.118 358.623 184.794C360.313 184.703 362.044 184.902 363.671 184.44C365.299 183.977 366.844 182.571 366.721 180.884C366.616 179.443 365.396 178.385 364.443 177.299C363.49 176.212 362.741 174.542 363.617 173.393L379.401 170.446C378.282 167.398 377.411 163.384 379.982 161.401C380.909 160.685 382.151 160.399 382.941 159.534C384.287 158.059 383.61 155.518 382.056 154.264C380.503 153.01 378.402 152.719 376.411 152.553C369.49 151.979 362.53 152.359 355.595 152.738C342.04 153.481 328.485 154.224 314.931 154.966C312.202 155.116 309.051 154.888 306.549 155.818C304.43 156.606 302.923 158.052 300.5 158.56C296.027 159.498 291.104 158.863 287.056 161.373Z" fill="#11998E"/>
<path id="Vector_6" d="M361.802 194.337C361.377 194.27 360.942 194.368 360.588 194.612C360.353 194.87 360.214 195.2 360.193 195.548C359.923 197.084 360.244 198.664 361.091 199.973C361.522 200.615 362.118 201.13 362.815 201.464C363.513 201.798 364.288 201.94 365.059 201.874C366.937 201.635 368.322 200.033 370.049 199.251C372.711 198.047 384.016 196.171 376.196 191.948C373.501 190.492 371.759 191.777 369.635 192.735C367.219 193.971 364.51 194.525 361.802 194.337V194.337Z" fill="#11998E"/>
<path id="Vector_7" d="M430.299 158.989C429.385 159.362 428.621 160.027 428.126 160.879C427.898 161.312 427.845 161.816 427.978 162.287C428.111 162.758 428.42 163.16 428.842 163.409C429.183 163.533 429.544 163.59 429.907 163.578L433.62 163.689C435.197 163.736 437.167 164.072 437.591 165.591C437.906 166.72 437.202 168.169 438.052 168.975C438.416 169.258 438.855 169.429 439.315 169.468C440.538 169.782 441.815 169.823 443.056 169.588C445.757 168.864 444.338 167.216 445.189 165.749C446.491 163.503 446.265 164.863 448.559 163.576C450.253 162.625 452.442 160.901 451.028 158.479C448.569 154.267 433.927 157.18 430.299 158.989Z" fill="#11998E"/>
<path id="Vector_8" d="M503.583 156.872L501.427 157.159C496.565 157.808 491.676 158.462 486.993 159.922C489.02 160.723 491.147 161.244 493.315 161.472C494.508 161.53 495.693 161.699 496.855 161.975C498.924 162.59 501.008 164.18 503.006 163.365C504.245 162.861 504.649 161.571 505.675 160.888C506.384 160.416 509.072 159.652 509.372 159.176C511.801 155.326 505.45 156.623 503.583 156.872Z" fill="#11998E"/>
<path id="Vector_9" d="M513.05 166.666C510.171 168.276 507.499 170.231 505.094 172.49C504.081 173.442 503.046 174.625 503.138 176.012C503.26 177.855 505.225 178.924 506.926 179.644L513.818 182.561C514.655 181.383 513.889 179.757 513.025 178.599C512.161 177.442 511.134 176.102 511.516 174.71C511.952 173.12 513.891 172.578 515.517 172.304C518.166 171.858 525.313 171.894 524.454 167.626C523.442 162.598 515.71 165.18 513.05 166.666Z" fill="#11998E"/>
<path id="Vector_10" d="M511.664 451.237C511.008 453.136 510.946 455.373 512.081 457.031C513.355 458.891 515.903 459.584 518.109 459.112C520.305 458.528 522.262 457.271 523.705 455.516C525.025 454.046 526.11 452.382 526.924 450.582C528.059 447.777 528.86 444.849 529.31 441.856L531.45 430.626C531.928 428.116 531.909 420.421 527.294 422.928C526.033 423.613 523.114 429.021 521.793 430.554C519.411 433.318 519.096 436 517.842 439.348C516.272 443.542 513.116 447.037 511.664 451.237Z" fill="#11998E"/>
<path id="Vector_11" d="M755.43 508.707C753.919 508.118 752.454 507.42 751.044 506.62C749.63 510.504 748.879 514.598 748.821 518.731L759.155 512.886C760.709 512.007 762.471 510.785 762.438 509C762.452 508.78 762.406 508.56 762.306 508.363C762.205 508.166 762.053 508 761.866 507.882C761.637 507.79 761.387 507.761 761.142 507.798C759.61 507.925 758.212 508.679 756.767 509.203C755.321 509.727 753.631 510.004 752.305 509.226" fill="#11998E"/>
<path id="Vector_12" d="M809.943 512.177C808.809 512.485 807.701 512.883 806.629 513.366C804.258 514.572 802.645 516.862 800.511 518.451C798.468 519.971 796.01 520.805 793.597 521.617C792.887 522.244 793.213 523.507 793.984 524.058C794.812 524.529 795.762 524.743 796.713 524.672C799.22 524.727 801.862 524.751 804.058 523.541C805.295 522.738 806.453 521.82 807.516 520.797C810.083 518.656 813.167 517.243 816.219 515.878C817.33 515.459 818.357 514.845 819.252 514.065C821.17 512.176 821.305 509.263 818.54 508.62C816.305 508.1 812.071 511.489 809.943 512.177Z" fill="#11998E"/>
<path id="Vector_13" d="M834.03 496.451C834.154 495.151 833.981 493.84 833.524 492.617C833.067 491.394 832.338 490.291 831.392 489.391C831.364 491.991 831.285 494.761 829.822 496.911C828.779 498.443 827.145 499.478 826.003 500.937C824.861 502.397 824.354 504.71 825.693 505.99C826.55 506.642 827.593 507.001 828.669 507.015C831.336 507.328 834.422 507.503 836.293 505.578C837.314 504.526 837.81 502.97 839.055 502.197C839.519 502.002 839.933 501.706 840.267 501.33C840.781 500.513 839.965 499.437 839.045 499.142C838.126 498.848 837.112 498.986 836.188 498.707C835.264 498.427 834.416 497.388 834.89 496.548" fill="#11998E"/>
<path id="Vector_14" d="M791.221 401.117C789.822 401.457 788.373 401.542 786.943 401.369C784.569 400.932 782.721 399.144 780.804 397.677C776.248 394.21 770.709 392.275 764.983 392.152C759.775 392.054 754.518 393.465 749.403 392.48C749.737 394.338 751.328 395.732 753.025 396.56C754.722 397.389 756.595 397.805 758.3 398.617C761.032 399.929 763.198 402.182 764.402 404.961C764.951 406.243 765.297 407.637 766.129 408.756C767.829 411.043 771.052 411.546 773.897 411.359C777.606 411.115 781.48 410.049 784.93 411.43C787.57 412.486 789.459 414.795 791.663 416.591C793.867 418.387 796.971 419.719 799.502 418.424C796.873 417.573 794.585 415.905 792.972 413.663C791.359 411.42 790.505 408.721 790.535 405.96C793.017 406.188 800.167 406.1 799.782 401.884C799.455 398.312 793.352 400.731 791.221 401.117Z" fill="#11998E"/>
<path id="Vector_15" d="M758.75 430.184C759.191 427.768 761.601 425.635 760.85 423.296C760.331 421.679 758.455 420.881 756.756 420.841C755.058 420.801 753.389 421.307 751.69 421.354C750.585 421.296 749.477 421.311 748.373 421.401C745.001 421.955 742.923 425.488 739.746 426.744C737.814 427.507 735.643 427.361 733.634 427.889C729.072 429.088 726.186 433.396 722.998 436.869C717.846 442.456 711.134 446.369 703.732 448.099C701.139 448.699 698.351 449.083 696.289 450.767C693.56 452.996 692.888 456.818 692.28 460.289C690.602 469.875 688.038 479.284 684.62 488.396L695.451 489.778C697.51 490.041 699.644 490.298 701.628 489.689C703.07 489.145 704.435 488.418 705.691 487.525C710.515 484.532 715.913 482.584 721.538 481.808C724.374 481.419 727.347 481.348 730.009 482.401C732.671 483.455 734.954 485.845 735.177 488.697C736.328 488.339 737.555 488.301 738.726 488.586C739.897 488.87 740.969 489.468 741.827 490.314C743.523 492.041 744.634 494.257 745.002 496.649C745.288 498.13 745.573 499.905 746.948 500.526C748.07 501.033 749.356 500.487 750.584 500.389C754.748 500.056 758.203 504.909 762.296 504.073C766.685 503.177 767.763 496.606 772.045 495.29C774.505 494.534 777.955 495.453 779.132 493.167C780.17 491.151 778.099 488.825 778.313 486.568C778.576 483.79 781.855 482.61 784.383 481.424C793.099 477.337 797.235 465.611 793.012 456.964C790.509 451.84 785.585 447.807 784.676 442.178C783.977 437.847 785.685 432.797 782.922 429.388C781.517 427.654 779.138 426.697 778.301 424.628C777.775 423.326 777.986 421.848 777.703 420.472C777.42 419.096 776.219 417.657 774.86 418.014C770.914 419.049 769.655 431.232 767.542 434.192C764.331 438.692 757.739 435.728 758.75 430.184Z" fill="#11998E"/>
<path id="Vector_16" d="M685.818 405.72C684.469 405.342 682.997 404.97 681.705 405.51C680.413 406.05 679.659 407.946 680.696 408.887C688.808 408.571 696.97 408.257 705.013 409.358C714.28 410.627 723.451 413.769 732.759 412.845C727.442 411.277 722.037 410.024 716.573 409.091L707.461 407.351C705.017 406.839 702.547 406.458 700.062 406.208C694.863 405.779 690.929 407.152 685.818 405.72Z" fill="#11998E"/>
<path id="Vector_17" d="M693.939 377.48C693.266 377.424 692.431 377.376 692.083 377.955C691.75 378.507 692.131 379.238 691.952 379.858C691.708 380.705 690.598 380.922 689.723 380.806C688.849 380.691 687.903 380.415 687.128 380.836C686.735 381.105 686.44 381.493 686.287 381.943C686.133 382.393 686.13 382.881 686.278 383.333C686.595 384.231 687.107 385.048 687.778 385.723C688.924 387.167 690.229 388.475 691.669 389.625C694.458 391.682 698.235 392.673 699.991 395.659C700.239 396.238 700.619 396.75 701.102 397.155C701.945 397.688 703.045 397.282 703.952 396.868L707.134 395.415C707.707 395.208 708.219 394.861 708.621 394.404C709.348 393.418 708.902 392.016 708.291 390.954C707.681 389.892 706.9 388.793 707.031 387.576C707.265 385.405 710.057 384.574 711.206 382.717C712.363 380.845 711.61 378.433 711.743 376.236C711.899 373.666 713.514 370.324 710.916 368.405C708.707 366.774 706.596 368.281 705.011 370.082C701.667 373.88 700.086 377.993 693.939 377.48Z" fill="#11998E"/>
<path id="Vector_18" d="M713.251 339.093C714.337 341.172 716.602 342.412 717.786 344.437C719.07 346.631 718.924 349.466 720.317 351.593C721.746 353.775 724.621 354.934 725.423 357.416C726.298 360.125 724.312 363.419 725.895 365.786C726.19 366.173 726.562 366.495 726.988 366.73C727.414 366.966 727.884 367.111 728.369 367.155C728.854 367.2 729.343 367.143 729.804 366.989C730.266 366.835 730.691 366.587 731.052 366.26C731.719 365.534 732.076 364.576 732.047 363.591C732.017 362.605 731.604 361.67 730.896 360.985C729.959 360.131 728.613 359.762 727.831 358.765C727.424 358.189 727.152 357.529 727.037 356.833C726.611 354.827 726.679 352.747 727.236 350.773C727.446 350.272 727.499 349.719 727.389 349.187C727.037 348.164 725.651 348.092 724.678 347.617C722.468 346.539 722.522 343.422 722.908 340.995C722.651 342.611 716.893 339.863 716.29 338.948C715.092 337.129 715.744 333.622 715.507 331.613C712.92 332.858 711.923 336.551 713.251 339.093Z" fill="#11998E"/>
<path id="Vector_19" d="M655.238 371.077C654.176 369.888 652.575 368.644 651.15 369.361C650.063 369.908 649.764 371.411 650.19 372.551C650.709 373.658 651.508 374.61 652.508 375.314C655.478 377.762 658.675 379.971 661.266 382.817C665.902 387.909 668.358 394.78 673.4 399.471C674.413 400.559 675.755 401.285 677.22 401.538C678.689 401.674 680.339 400.735 680.508 399.27C680.647 398.063 679.805 396.983 678.983 396.089C677.024 393.96 674.88 392 673.031 389.775C672.177 388.92 671.64 387.8 671.51 386.599C671.5 385.401 672.593 384.147 673.754 384.444C672.342 384.083 671.295 381.731 669.222 381.289C667.49 380.92 667.071 381.992 665.009 381.108C661.077 379.422 657.992 374.158 655.238 371.077Z" fill="#11998E"/>
<path id="Vector_20" d="M747.629 255.279C746.501 254.944 745.392 254.548 744.307 254.093C741.387 253.217 737.525 255.362 737.914 258.384C738.172 260.392 740.042 261.745 741.074 263.487C742.605 266.069 742.197 269.345 741.392 272.237C741.195 273.133 740.819 273.979 740.288 274.727C739.545 275.516 738.657 276.155 737.672 276.608C733.729 278.817 730.252 281.77 727.433 285.302C727.127 285.628 726.913 286.03 726.815 286.467C726.676 287.487 727.702 288.23 728.282 289.081C729.571 290.971 728.639 293.515 728.767 295.798C728.747 296.121 728.81 296.444 728.95 296.735C729.09 297.027 729.303 297.278 729.567 297.465C730.344 297.859 731.264 297.189 731.685 296.427C733.082 293.897 732.03 289.837 734.65 288.617C735.146 288.386 735.747 288.289 736.078 287.854C736.602 287.163 736.096 286.141 736.362 285.315C736.761 284.076 738.457 284.021 739.758 284.076C742 284.169 744.241 283.871 746.38 283.195C747.219 282.995 747.981 282.554 748.571 281.926C749.355 280.949 749.285 279.559 749.129 278.317C748.345 272.123 746.382 266.136 743.346 260.68C745.648 260.974 748.153 261.228 750.139 260.029C751.251 259.357 752.585 257.349 752.034 255.983C751.161 253.821 749.585 255.641 747.629 255.279Z" fill="#11998E"/>
<path id="Vector_21" d="M452.507 289.345C452.782 290.822 453.053 292.377 452.569 293.8C452.085 295.222 450.561 296.41 449.123 295.974C448.007 295.636 447.362 294.514 446.569 293.659C442.161 288.902 432.216 291.656 429.492 285.771C428.381 283.37 429.136 280.492 428.378 277.957C427.9 276.492 426.948 275.227 425.673 274.361C424.397 273.494 422.87 273.076 421.331 273.172C419.927 273.375 418.561 273.782 417.276 274.382C408.666 277.828 399.627 280.088 390.408 281.099C388.655 281.205 386.922 281.521 385.245 282.038C381.459 283.409 378.873 286.917 377.032 290.497C375.191 294.076 373.832 297.952 371.365 301.132C368.771 304.474 365.136 306.815 361.746 309.346C360.44 310.188 359.353 311.327 358.573 312.67C357.838 314.178 357.88 315.933 357.937 317.609L358.63 337.973C358.719 340.592 358.831 343.305 360.004 345.649C361.468 348.576 364.361 350.493 366.369 353.079C368.417 355.736 369.484 359.019 369.389 362.372C369.346 363.72 369.212 365.315 370.263 366.161C370.902 366.575 371.649 366.79 372.411 366.779L399.97 369.033C404.818 369.43 410.19 370.082 413.355 373.774C414.849 375.516 416.049 378.021 418.337 378.208C419.319 378.289 420.273 377.886 421.255 377.808C423.732 377.612 425.907 379.491 427.28 381.56C429.358 384.714 430.302 388.481 429.955 392.242C429.73 394.602 428.998 396.897 428.84 399.263C428.239 408.266 435.875 416.088 436.023 425.11C436.11 430.416 433.59 435.374 431.132 440.079C435.098 446.084 431.851 454.081 433.43 461.101C434.928 467.761 440.483 472.975 441.868 479.66C442.502 482.72 442.538 486.486 445.238 488.062C446.423 488.639 447.736 488.902 449.052 488.825C456.988 488.919 464.833 487.134 471.946 483.616C475.284 481.96 478.744 479.488 479.327 475.809C479.797 472.842 478.292 469.523 479.824 466.939C481.63 463.893 486.255 464.134 488.912 461.792C493.222 457.993 489.861 450.747 491.607 445.275C493.177 440.356 498.58 437.743 501.258 433.328C502.312 431.43 503.069 429.381 503.501 427.253C504.728 422.167 505.492 416.981 505.783 411.757C505.854 408.584 506.088 405.416 506.484 402.266C509.372 384.335 527.108 372.327 532.866 355.101C533.416 353.456 533.674 351.265 532.21 350.334C531.341 349.92 530.357 349.817 529.421 350.042L516.717 351.643C515.139 351.842 513.467 352.028 512.017 351.372C510.568 350.717 509.53 348.885 510.298 347.493C512.456 343.587 508.018 338.65 506.046 334.647C500.735 323.867 494.411 313.616 487.159 304.032C486.695 303.539 486.404 302.908 486.331 302.235L489.937 302.355C488.72 297.99 486.711 293.213 482.468 291.616C480.077 290.716 477.429 291.027 474.878 291.167C467.572 291.566 459.739 290.463 452.507 289.345Z" fill="#11998E"/>
<path id="Vector_22" d="M474.884 190.973C476.796 193.003 478.939 195.155 481.705 195.508C486.592 196.133 490.105 191.083 492.341 186.696C492.424 187.814 492.94 188.856 493.78 189.6C494.619 190.344 495.716 190.731 496.837 190.68C498.043 190.477 499.194 190.027 500.218 189.358C509.899 184.07 520.743 181.268 531.775 181.204C531.669 180.369 531.876 179.524 532.357 178.833C532.837 178.141 533.557 177.652 534.377 177.46C536.62 177.015 538.641 178.954 539.723 180.967C540.805 182.981 541.48 185.315 543.199 186.822C544.918 188.329 548.246 188.263 548.925 186.081C549.577 183.985 547.393 182.198 545.579 180.963C543.765 179.728 541.852 177.441 543.074 175.618C552.343 173.568 561.67 171.509 571.155 171.101C572.77 171.157 574.379 170.88 575.882 170.287C577.329 169.578 578.479 167.967 578.09 166.404C576.02 166.891 573.852 166.75 571.862 166C569.873 165.25 568.152 163.925 566.919 162.193C580.08 161.107 594.079 160.182 605.742 166.372C607.142 169.375 600.008 171.874 601.917 174.583C602.526 175.447 603.745 175.548 604.802 175.568C612.908 175.718 621.06 175.866 629.074 174.643C632.002 174.196 634.96 173.565 637.901 173.927C642.798 174.531 646.987 177.797 651.805 178.862C653.766 179.295 655.965 179.31 657.618 178.17C659.271 177.03 659.981 174.434 658.627 172.952C663.163 168.508 670.692 169.609 676.677 171.737C682.662 173.864 688.331 177.295 694.665 177.77C699.207 178.11 703.813 176.889 708.301 177.665C711.121 178.153 713.746 179.407 716.503 180.177C721.716 181.634 727.232 181.327 732.645 181.397C746.456 181.583 760.117 184.296 772.95 189.402C774.62 189.945 776.149 190.849 777.431 192.048C778.625 193.326 779.234 195.312 778.431 196.866L765.17 194.93C766.42 197.388 769.652 197.807 772.277 198.655C774.902 199.503 777.624 202.401 776.046 204.663C773.202 203.758 770.625 206.6 769.188 209.215C767.751 211.83 766 214.962 763.02 215.122C760.35 215.264 757.122 212.993 755.383 215.021C757.786 218.052 759.844 221.341 761.519 224.827C763.238 228.406 764.462 232.916 762.139 236.136C761.774 236.711 761.219 237.141 760.571 237.352C758.674 237.832 757.441 235.512 756.08 234.106C754.366 232.334 751.773 231.832 749.451 231.001C747.129 230.17 744.683 228.535 744.501 226.077C744.388 224.547 745.196 223.125 745.791 221.711C746.792 219.329 747.229 216.747 747.07 214.168C746.939 212.093 746.357 209.935 744.866 208.485C743.376 207.035 740.802 206.575 739.201 207.903C738.454 208.523 737.856 209.514 736.886 209.551C735.172 209.616 733.857 206.63 732.478 207.65C732.64 208.736 732.414 209.844 731.841 210.781C727.727 214.357 721.407 212.844 716.103 214.108C713.581 214.829 711.167 215.883 708.923 217.242C708.084 217.601 707.37 218.2 706.871 218.964C706.209 220.25 706.939 221.897 708.106 222.752C709.343 223.51 710.734 223.985 712.177 224.141C718.643 225.365 725.203 227.26 730.308 231.411C735.413 235.562 738.761 242.424 737.145 248.801L724.394 236.622C724.878 241.736 725.153 246.863 725.219 252.005C725.301 253.009 725.163 254.018 724.814 254.964C723.905 256.97 721.442 257.646 719.283 258.089C718.682 258.203 718.113 258.442 717.611 258.792C717.11 259.142 716.689 259.594 716.375 260.118C716.06 260.642 715.861 261.226 715.789 261.833C715.717 262.44 715.774 263.055 715.956 263.638C716.723 266.137 718.636 268.085 720.387 270.027C722.139 271.968 723.862 274.175 724.091 276.778C724.32 279.382 722.355 282.318 719.746 282.136C717.768 281.999 716.301 280.23 715.457 278.436C714.614 276.643 714.112 274.645 712.844 273.122C709.008 268.51 700.39 270.486 696.953 265.569C696.077 266.562 695.47 267.763 695.188 269.057C694.907 270.351 694.961 271.695 695.346 272.962C696.945 271.962 699.134 272.891 700.335 274.345C701.536 275.799 702.103 277.662 703.047 279.295C704.32 281.498 706.346 283.452 706.523 285.99C706.476 286.949 706.492 287.911 706.572 288.869C706.887 290.407 708.188 291.511 709.089 292.796C711.188 295.787 711.084 299.896 709.732 303.29C708.379 306.683 705.95 309.519 703.544 312.268C699.341 317.07 695.052 321.844 690.069 325.832C688.647 326.969 687.13 328.088 686.245 329.679C685.359 331.27 685.314 333.503 686.674 334.713C685.701 334.762 683.955 335.241 682.981 335.289C682.639 331.385 682.564 327.462 682.758 323.548C678.916 321.704 674.779 326.643 675.275 330.874C675.77 335.105 678.832 338.501 681.012 342.162C682.607 344.839 683.791 347.961 683.259 351.03C682.727 354.1 679.985 356.932 676.88 356.661C671.941 356.23 669.875 349.143 664.984 348.332C664.553 348.231 664.1 348.276 663.697 348.46C662.971 348.858 662.845 349.829 662.804 350.656C662.604 354.714 662.431 358.933 664.016 362.674C666.334 368.147 672.324 372.744 671.067 378.554C664.299 375.409 660.78 367.823 659.182 360.535C657.584 353.248 657.318 345.598 654.454 338.709C652.279 341.495 647.708 339.191 645.721 336.269C643.837 333.497 642.677 330.292 640.849 327.484C639.022 324.675 636.222 322.16 632.873 322.006C629.363 321.844 626.318 324.252 623.641 326.527C621.439 328.398 619.179 330.343 617.892 332.929C616.019 336.692 616.509 341.129 616.419 345.331C616.321 349.874 615.358 354.667 612.26 357.993C609.162 361.319 603.444 362.477 600.028 359.48C598.244 357.915 597.38 355.577 596.611 353.333C592.902 342.515 589.814 331.494 587.36 320.325C586.786 322.874 584.547 326.16 582.407 324.658C581.927 324.255 581.538 323.754 581.266 323.189C577.275 316.428 569.884 312.373 562.417 309.941C554.95 307.51 547.093 306.376 539.709 303.704C535.571 302.205 531.618 300.238 527.929 297.839C526.988 299.22 526.439 300.829 526.34 302.497C526.24 304.164 526.593 305.828 527.363 307.311C529.001 310.21 532.707 311.887 535.88 310.874C537.52 310.35 538.905 309.213 540.532 308.651C542.159 308.089 544.343 308.365 545.054 309.931C545.735 311.431 544.706 313.245 545.216 314.811C545.994 317.196 549.592 317.38 550.851 319.55C551.787 321.164 551.017 323.309 549.68 324.611C548.343 325.914 546.56 326.629 544.928 327.536C539.633 330.479 535.868 335.502 531.241 339.411C526.613 343.319 520.085 346.173 514.57 343.666C515.885 337.013 507.956 332.128 506.497 325.505C506.017 323.325 506.266 321.01 505.581 318.886C504.588 315.81 501.858 313.695 499.619 311.364C496.902 308.506 494.786 305.134 493.395 301.445C492.003 297.757 491.365 293.827 491.518 289.888C491.639 287.151 492.142 284.369 491.519 281.701C490.895 279.033 488.685 276.451 485.946 276.572C479.692 276.848 471.812 277.313 468.53 271.984C467.359 270.082 466.85 267.296 468.543 265.839C469.737 264.811 471.501 264.908 473.069 265.062L487.162 266.448C490.458 266.772 494.021 267.039 496.85 265.317C499.678 263.594 500.904 259.023 498.285 256.996C496.371 255.516 492.942 255.596 492.386 253.242C491.923 251.282 494.094 249.057 492.921 247.419C492.081 246.244 490.19 246.57 489.045 247.45C487.9 248.331 487.069 249.619 485.787 250.286C483.538 251.456 480.851 250.342 478.432 249.586C476.012 248.829 472.769 248.765 471.595 251.011C470.283 253.523 472.759 256.814 471.457 259.331C469.735 262.659 463.903 260.765 461.485 263.627C458.71 266.912 463.373 271.809 462.437 276.006C461.243 276.597 459.915 276.869 458.583 276.794C457.252 276.719 455.963 276.3 454.842 275.579C453.74 274.829 452.861 273.795 452.299 272.586C451.738 271.377 451.515 270.039 451.654 268.713C451.886 266.826 452.87 264.899 452.211 263.115C451.677 261.673 450.228 260.814 448.882 260.07L435.187 252.506C433.916 254.864 435.523 257.787 437.533 259.557C439.544 261.328 442.062 262.662 443.382 264.992C444.218 266.607 444.405 268.479 443.906 270.227C443.407 271.975 442.259 273.466 440.697 274.397C440.501 274.532 440.278 274.623 440.044 274.664C439.81 274.705 439.569 274.695 439.339 274.634C439.121 274.505 438.93 274.335 438.779 274.131C438.628 273.928 438.519 273.696 438.459 273.45C436.042 267.27 432.415 261.176 426.615 257.947C420.814 254.719 412.48 255.382 408.677 260.821C407.773 262.113 407.167 263.586 406.38 264.951C402.199 272.208 393.235 275.644 384.861 275.419C384.041 275.465 383.227 275.273 382.513 274.868C381.16 273.934 381.221 271.951 381.428 270.32L382.307 263.398C382.483 262.008 382.739 260.472 383.84 259.604C385.391 258.381 387.629 259.153 389.605 259.125C391.102 259.055 392.541 258.526 393.727 257.611C394.914 256.696 395.79 255.439 396.237 254.009C396.636 252.565 396.634 251.04 396.23 249.598C395.826 248.156 395.036 246.851 393.945 245.824C393.039 244.974 391.824 243.906 392.302 242.76C392.493 242.443 392.751 242.172 393.058 241.965C393.365 241.759 393.713 241.622 394.079 241.564C397.628 240.534 401.378 240.264 404.868 239.049C408.358 237.833 411.742 235.346 412.568 231.746C412.822 230.643 412.937 229.306 413.928 228.759C414.426 228.549 414.96 228.44 415.5 228.438C417.392 228.169 419.115 227.202 420.329 225.727C421.543 224.252 422.161 222.376 422.061 220.469C423.733 219.3 426.077 220.16 427.695 221.402C429.313 222.644 430.741 224.286 432.71 224.821C436.379 225.82 439.924 222.573 443.727 222.558C445.326 222.551 446.981 223.116 448.485 222.574C450.01 222.025 450.921 220.508 452.091 219.387C453.262 218.266 455.316 217.582 456.396 218.79L455.476 211.976C457.329 212.444 459.262 212.51 461.143 212.17C463.024 211.83 464.811 211.092 466.383 210.005L454.488 205.988C454.074 205.885 453.692 205.68 453.376 205.394C452.511 204.463 453.37 203.013 454.073 201.955C455.756 199.423 456.038 195.254 453.272 193.994C451.383 193.134 449.216 194.167 447.404 195.177L438.722 200.015C438.446 201.664 440.464 202.599 441.715 203.71C442.471 204.382 443.007 205.268 443.251 206.249C443.495 207.231 443.436 208.264 443.082 209.212C442.728 210.16 442.096 210.979 441.268 211.561C440.44 212.143 439.455 212.461 438.443 212.473C439.014 213.216 439.412 214.078 439.605 214.995C439.798 215.912 439.783 216.861 439.559 217.771L433.718 218.191C433.063 218.323 432.382 218.19 431.824 217.822C431.199 217.267 431.284 216.295 431.139 215.473C430.789 213.488 428.845 212.096 426.86 211.739C424.875 211.383 422.845 211.84 420.879 212.291C420.045 212.592 419.128 212.571 418.308 212.232C417.838 211.927 417.481 211.476 417.291 210.949C416.43 208.861 417.235 206.406 418.619 204.62C420.003 202.835 421.897 201.529 423.599 200.042C427.667 196.474 430.657 191.84 432.229 186.663C435.445 185.316 438.774 183.486 441.989 182.14C446.947 179.631 452.506 178.554 458.042 179.031L468.932 179.239C472.156 179.3 475.467 179.379 478.448 180.608C481.43 181.836 484.049 184.493 484.255 187.71C484.317 188.074 484.286 188.448 484.164 188.797C484.041 189.145 483.833 189.457 483.557 189.703C483.136 189.933 482.659 190.04 482.18 190.013C479.173 190.119 477.891 190.868 474.884 190.973Z" fill="#11998E"/>
<path id="Vector_23" d="M388.087 225.086C388.512 224.683 388.818 224.171 388.972 223.606C389.125 223.041 389.12 222.445 388.956 221.882C387.921 221.483 386.794 221.381 385.704 221.586C384.613 221.792 383.602 222.298 382.784 223.047C382.139 223.7 381.583 224.434 381.131 225.232C379.7 227.566 378.434 230.353 379.263 232.961C379.331 233.246 379.455 233.514 379.627 233.75C379.8 233.986 380.018 234.185 380.269 234.336C380.64 234.485 381.041 234.547 381.44 234.519C383.017 234.517 384.592 234.42 386.156 234.229C387.117 234.112 388.233 233.84 388.605 232.947C389.093 231.772 387.911 230.443 388.256 229.218C388.482 228.671 388.826 228.179 389.262 227.778C389.478 227.576 389.645 227.326 389.748 227.049C389.851 226.771 389.888 226.474 389.855 226.179C389.716 225.605 388.836 225.279 388.519 225.778" fill="#11998E"/>
<path id="Vector_24" d="M396.261 214.493C394.861 214.172 393.417 214.081 391.988 214.225C391.671 214.215 391.358 214.287 391.077 214.432C390.805 214.632 390.607 214.918 390.516 215.244C390.214 216.213 390.288 217.259 390.724 218.176C391.159 219.092 391.924 219.811 392.866 220.189C393.38 220.307 393.871 220.504 394.324 220.774C395.532 221.712 394.762 223.628 394.991 225.139C395.248 226.837 396.892 228.262 396.59 229.953C396.353 231.284 394.93 232.339 395.159 233.672C395.399 235.068 397.172 235.488 398.585 235.6C399.404 235.743 400.246 235.646 401.012 235.322C401.779 234.797 402.324 234.008 402.543 233.105C403.121 231.384 403.365 229.568 403.259 227.755C403.253 226.931 403.046 226.121 402.656 225.394C402.23 224.819 401.758 224.279 401.245 223.78C398.538 220.632 401.389 215.937 396.261 214.493Z" fill="#11998E"/>
<path id="Vector_25" opacity="0.8" d="M752.261 461.065C752.261 461.065 544.912 342.099 455.645 364.64C455.645 364.64 266.462 384.99 244.537 429.758C244.537 429.758 184.399 241.918 162.474 235.657" stroke="#38EF7D" stroke-width="2" stroke-miterlimit="10"/>
<path id="Vector_26" opacity="0.8" d="M244.537 429.758C279.304 337.09 592.521 234.404 592.521 234.404C548.044 245.675 455.645 364.64 455.645 364.64C455.645 364.64 260.197 222.508 162.474 235.657C162.474 235.657 592.834 249.745 752.261 461.065" stroke="#38EF7D" stroke-width="2" stroke-miterlimit="10"/>
<path id="Vector_27" d="M162.474 244.735C167.49 244.735 171.557 240.671 171.557 235.657C171.557 230.642 167.49 226.578 162.474 226.578C157.457 226.578 153.39 230.642 153.39 235.657C153.39 240.671 157.457 244.735 162.474 244.735Z" fill="#38EF7D"/>
<path id="Vector_28" d="M244.537 438.837C249.553 438.837 253.62 434.772 253.62 429.758C253.62 424.744 249.553 420.679 244.537 420.679C239.52 420.679 235.453 424.744 235.453 429.758C235.453 434.772 239.52 438.837 244.537 438.837Z" fill="#38EF7D"/>
<path id="Vector_29" d="M592.521 243.483C597.537 243.483 601.604 239.418 601.604 234.404C601.604 229.39 597.537 225.325 592.521 225.325C587.504 225.325 583.437 229.39 583.437 234.404C583.437 239.418 587.504 243.483 592.521 243.483Z" fill="#38EF7D"/>
<path id="Vector_30" d="M752.261 470.144C757.278 470.144 761.345 466.079 761.345 461.065C761.345 456.051 757.278 451.986 752.261 451.986C747.245 451.986 743.178 456.051 743.178 461.065C743.178 466.079 747.245 470.144 752.261 470.144Z" fill="#38EF7D"/>
<path id="Vector_31" d="M455.645 373.719C460.661 373.719 464.728 369.654 464.728 364.64C464.728 359.626 460.661 355.561 455.645 355.561C450.628 355.561 446.562 359.626 446.562 364.64C446.562 369.654 450.628 373.719 455.645 373.719Z" fill="#38EF7D"/>
</g>
</svg>
